<svg width="171.000000" height="41.000000" viewBox="0 0 171 41" fill="none" xmlns="http://www.w3.org/2000/svg" xmlns:xlink="http://www.w3.org/1999/xlink">
	<desc>
			Created with Pixso.
	</desc>
	<defs/>
	<path d="M91.84 20.19L91.84 30.06L94.84 30.06L94.84 20.19L98.01 20.19L98.01 17.94L94.82 17.94L94.82 17C94.82 16.45 94.91 16.02 95.08 15.7C95.28 15.37 95.53 15.12 95.85 14.96C96.19 14.8 96.56 14.72 96.98 14.72C97.25 14.72 97.53 14.74 97.82 14.79C98.11 14.84 98.36 14.9 98.56 14.98L98.56 12.63C98.28 12.5 97.93 12.42 97.53 12.37C97.15 12.32 96.78 12.3 96.43 12.3C94.92 12.3 93.78 12.68 93 13.45C92.23 14.22 91.84 15.35 91.84 16.86L91.84 17.94L89.52 17.94L89.52 20.19L91.84 20.19ZM114.63 12.39L114.63 30.06L117.63 30.06L117.63 12.39L114.63 12.39ZM58.08 15.68L58.08 30.06L61.18 30.06L61.18 15.68L66.77 15.68L66.77 13.14L52.49 13.14L52.49 15.68L58.08 15.68ZM66.82 21.03L66.82 30.06L69.84 30.06L69.84 23.6C69.84 22.94 69.95 22.36 70.18 21.85C70.42 21.34 70.77 20.94 71.23 20.65C71.71 20.36 72.3 20.21 72.99 20.21Q73.47 20.21 73.78 20.26Q74.11 20.31 74.57 20.5L74.59 17.86C74.42 17.8 74.24 17.76 74.07 17.74C73.89 17.71 73.66 17.7 73.37 17.7C72.73 17.7 72.14 17.82 71.59 18.08C71.05 18.34 70.59 18.73 70.2 19.26C70.04 19.49 69.89 19.76 69.77 20.05L69.55 17.94L66.65 17.94Q66.75 18.68 66.77 19.47Q66.82 20.26 66.82 21.03ZM78.04 29.55C78.84 30.05 79.77 30.3 80.83 30.3Q81.89 30.3 82.79 29.92Q83.15 29.76 83.49 29.55C84.05 29.2 84.48 28.75 84.77 28.23L84.79 30.06L87.76 30.06L87.76 20.96C87.76 20.46 87.78 19.96 87.81 19.45C87.86 18.94 87.91 18.43 87.95 17.94L85.07 17.94L84.87 19.94Q84.76 19.73 84.63 19.53Q84.21 18.91 83.51 18.46C82.75 17.95 81.85 17.7 80.83 17.7C79.77 17.7 78.84 17.95 78.04 18.46Q77.82 18.6 77.62 18.76Q76.72 19.47 76.17 20.62C75.72 21.55 75.5 22.67 75.5 23.98Q75.5 25.95 76.17 27.37C76.62 28.31 77.24 29.04 78.04 29.55ZM101.64 29.55C102.44 30.05 103.37 30.3 104.43 30.3C105.42 30.3 106.31 30.05 107.09 29.55C107.65 29.2 108.08 28.75 108.37 28.23L108.39 30.06L111.36 30.06L111.36 20.96C111.36 20.46 111.38 19.96 111.41 19.45C111.46 18.94 111.51 18.43 111.56 17.94L108.68 17.94L108.47 19.94Q108.36 19.73 108.23 19.53Q107.81 18.91 107.12 18.46C106.35 17.95 105.45 17.7 104.43 17.7C103.37 17.7 102.44 17.95 101.64 18.46Q101.42 18.6 101.22 18.76Q100.32 19.47 99.77 20.62Q99.1 22.02 99.1 23.98Q99.1 25.95 99.77 27.37C100.22 28.31 100.84 29.04 101.64 29.55ZM123.46 35.07C124.37 35.31 125.38 35.43 126.5 35.43C128.49 35.43 129.99 34.93 131.02 33.92C132.06 32.93 132.58 31.48 132.58 29.58L132.58 20.96C132.58 20.46 132.59 19.96 132.62 19.45C132.66 18.94 132.7 18.43 132.77 17.94L129.86 17.94L129.66 19.93C129.37 19.32 128.92 18.82 128.3 18.44Q128.16 18.34 128 18.26Q126.98 17.7 125.64 17.7C124.55 17.7 123.6 17.94 122.78 18.44C121.98 18.92 121.36 19.62 120.91 20.53C120.46 21.42 120.24 22.49 120.24 23.72Q120.24 25.57 120.91 26.94C121.36 27.85 121.98 28.55 122.78 29.05C123.6 29.53 124.55 29.77 125.64 29.77Q126.85 29.77 127.82 29.29Q128.07 29.17 128.3 29.02C128.89 28.65 129.33 28.18 129.62 27.62L129.62 29.94Q129.62 31.32 128.94 32.12Q128.87 32.21 128.78 32.29C128.24 32.85 127.41 33.13 126.29 33.13C125.74 33.13 125.21 33.08 124.68 32.98C124.15 32.89 123.64 32.74 123.14 32.55C122.65 32.36 122.17 32.11 121.7 31.81L121.06 33.97C121.76 34.46 122.56 34.83 123.46 35.07ZM137.71 29.55C138.51 30.05 139.44 30.3 140.5 30.3Q141.56 30.3 142.46 29.92Q142.83 29.76 143.16 29.55C143.72 29.2 144.15 28.75 144.44 28.23L144.46 30.06L147.43 30.06L147.43 20.96Q147.43 20.21 147.48 19.45C147.53 18.94 147.58 18.43 147.63 17.94L144.75 17.94L144.54 19.94C144.25 19.34 143.8 18.85 143.19 18.46C142.42 17.95 141.52 17.7 140.5 17.7C139.44 17.7 138.51 17.95 137.71 18.46C136.91 18.96 136.29 19.68 135.84 20.62Q135.17 22.02 135.17 23.98Q135.17 25.95 135.84 27.37C136.29 28.31 136.91 29.04 137.71 29.55ZM150.68 21.03L150.68 30.06L153.7 30.06L153.7 23.6C153.7 22.94 153.81 22.36 154.04 21.85C154.28 21.34 154.63 20.94 155.09 20.65C155.57 20.36 156.16 20.21 156.85 20.21Q157.33 20.21 157.64 20.26Q157.97 20.31 158.43 20.5L158.45 17.86C158.28 17.8 158.1 17.76 157.92 17.74C157.75 17.71 157.52 17.7 157.23 17.7C156.59 17.7 156 17.82 155.45 18.08C154.91 18.34 154.45 18.73 154.06 19.26C153.89 19.49 153.75 19.76 153.63 20.05L153.41 17.94L150.51 17.94C150.57 18.43 150.61 18.94 150.63 19.47C150.66 20 150.68 20.52 150.68 21.03ZM83.95 27.01C83.37 27.66 82.61 27.99 81.67 27.99C80.71 27.99 79.94 27.66 79.36 27.01C78.8 26.34 78.52 25.33 78.52 23.98Q78.52 21.97 79.39 20.98Q79.72 20.6 80.14 20.37Q80.8 20 81.67 20Q82.54 20 83.2 20.37Q83.61 20.6 83.95 20.98C84.52 21.64 84.81 22.64 84.81 23.98C84.81 25.33 84.52 26.34 83.95 27.01ZM107.55 27.01C106.97 27.66 106.21 27.99 105.27 27.99C104.31 27.99 103.54 27.66 102.96 27.01C102.4 26.34 102.12 25.33 102.12 23.98C102.12 22.64 102.41 21.64 102.99 20.98C103.56 20.33 104.32 20 105.27 20C106.21 20 106.97 20.33 107.55 20.98C108.12 21.64 108.41 22.64 108.41 23.98C108.41 25.33 108.12 26.34 107.55 27.01ZM128.74 26.5C128.18 27.14 127.42 27.46 126.46 27.46C125.48 27.46 124.7 27.14 124.13 26.5C123.55 25.85 123.26 24.92 123.26 23.72C123.26 22.52 123.55 21.6 124.13 20.96C124.7 20.32 125.48 20 126.46 20C127.42 20 128.18 20.32 128.74 20.96C129.31 21.6 129.6 22.52 129.6 23.72C129.6 24.92 129.31 25.85 128.74 26.5ZM143.62 27.01C143.04 27.66 142.28 27.99 141.34 27.99C140.38 27.99 139.61 27.66 139.03 27.01C138.47 26.34 138.19 25.33 138.19 23.98C138.19 22.64 138.48 21.64 139.06 20.98C139.63 20.33 140.39 20 141.34 20C142.28 20 143.04 20.33 143.62 20.98C144.19 21.64 144.48 22.64 144.48 23.98C144.48 25.33 144.19 26.34 143.62 27.01Z" fill="#FFFFFF" fill-opacity="1.000000" fill-rule="evenodd"/>
	<ellipse cx="20.247681" cy="20.500000" rx="20.259418" ry="20.500000" fill="#FFFFFF" fill-opacity="1.000000"/>
	<path d="M19.17 15.74L19.17 31.31L22.53 31.31L22.53 15.74L28.59 15.74L28.59 12.98L13.12 12.98L13.12 15.74L19.17 15.74Z" fill="#5B9BF3" fill-opacity="1.000000" fill-rule="evenodd"/>
</svg>
