<svg width="97.000000" height="94.000000" viewBox="0 0 97 94" fill="none" xmlns="http://www.w3.org/2000/svg" xmlns:xlink="http://www.w3.org/1999/xlink">
	<desc>
			Created with Pixso.
	</desc>
	<defs>
		<clipPath id="clip0_64">
			<rect width="96.905418" height="93.833702" transform="translate(-0.017853 -0.780640)" fill="white" fill-opacity="0"/>
		</clipPath>
		<linearGradient x1="5.960880" y1="87.137985" x2="56.451485" y2="41.372162" id="paint_linear_0_66_0" gradientUnits="userSpaceOnUse">
			<stop stop-color="#67C3F3"/>
			<stop offset="1.000000" stop-color="#5A98F2"/>
		</linearGradient>
		<linearGradient x1="52.679016" y1="1.422741" x2="76.363678" y2="54.511032" id="paint_linear_0_68_0" gradientUnits="userSpaceOnUse">
			<stop stop-color="#67C3F3"/>
			<stop offset="1.000000" stop-color="#5A98F2"/>
		</linearGradient>
		<linearGradient x1="58.211613" y1="28.823618" x2="76.754684" y2="37.841133" id="paint_linear_0_71_0" gradientUnits="userSpaceOnUse">
			<stop stop-color="#B0F4FF"/>
			<stop offset="0.071077" stop-color="#A6F1FF"/>
			<stop offset="0.293700" stop-color="#8BE8FD"/>
			<stop offset="0.520900" stop-color="#78E1FD"/>
			<stop offset="0.753600" stop-color="#6DDDFC"/>
			<stop offset="1.000000" stop-color="#69DCFC"/>
		</linearGradient>
	</defs>
	<rect width="96.905418" height="93.833702" transform="translate(-0.017853 -0.780640)" fill="#FFFFFF" fill-opacity="0"/>
	<g clip-path="url(#clip0_64)">
		<path d="M59.2 44.37L49.64 53.41L9.25 91.55C8.19 92.56 6.83 93.06 5.47 93.06C3.98 93.06 2.49 92.46 1.41 91.28C-0.72 88.95 -0.44 85.31 2.01 83.32L49.64 44.91L54.89 40.68L59.2 44.37Z" fill="url(#paint_linear_0_66_0)" fill-opacity="1.000000" fill-rule="nonzero"/>
		<path d="M49.22 53.87L39.81 62.75L38.94 53.62L44.09 49.47L49.22 53.87Z" fill="#3A81D6" fill-opacity="0.800000" fill-rule="nonzero"/>
		<path d="M96.88 30.4C96.88 47.62 82.87 61.59 65.61 61.59C54.73 61.59 45.14 56.05 39.54 47.63C36.25 42.7 34.34 36.77 34.34 30.4C34.34 13.17 48.34 -0.79 65.61 -0.79C73.41 -0.79 80.53 2.05 86 6.75C92.66 12.48 96.88 20.95 96.88 30.4Z" fill="url(#paint_linear_0_68_0)" fill-opacity="1.000000" fill-rule="nonzero"/>
		<path d="M89.97 30.4C89.97 43.81 79.07 54.69 65.61 54.69C52.15 54.69 41.24 43.81 41.24 30.4C41.24 16.98 52.15 6.1 65.61 6.1C79.07 6.1 89.97 16.98 89.97 30.4Z" fill="#FFFFFF" fill-opacity="1.000000" fill-rule="evenodd"/>
		<g opacity="0.060000">
			<path d="M96.88 30.4C96.88 47.62 82.87 61.59 65.61 61.59C54.73 61.59 45.14 56.05 39.54 47.63C74.81 44.77 84.11 14.98 86.01 6.75C92.66 12.48 96.88 20.95 96.88 30.4Z" fill="#1A6FB5" fill-opacity="0.500000" fill-rule="nonzero"/>
		</g>
		<path d="M65.61 30.45C68.44 30.45 70.73 28.16 70.73 25.35C70.73 22.53 68.44 20.24 65.61 20.24C62.78 20.24 60.49 22.53 60.49 25.35C60.49 28.16 62.77 30.45 65.61 30.45ZM65.61 33C62.19 33 55.37 34.71 55.37 38.11L55.37 39.39C55.37 40.09 55.95 40.67 56.66 40.67L74.58 40.67C75.29 40.67 75.87 40.09 75.87 39.39L75.87 38.11C75.85 34.72 69.03 33 65.61 33Z" fill="url(#paint_linear_0_71_0)" fill-opacity="1.000000" fill-rule="nonzero"/>
	</g>
</svg>
